<svg id="Layer_1" data-name="Layer 1" xmlns="http://www.w3.org/2000/svg" xmlns:xlink="http://www.w3.org/1999/xlink" viewBox="0 0 2589.32 768"><defs><style>.cls-1{fill:url(#linear-gradient);}.cls-2{fill:#fff;opacity:0.05;}.cls-3{fill:none;stroke-miterlimit:10;opacity:0.2;stroke:url(#radial-gradient);}.cls-4{fill:#e5e5e5;}</style><linearGradient id="linear-gradient" x1="-549.31" y1="-478.86" x2="2818.1" y2="1096.87" gradientUnits="userSpaceOnUse"><stop offset="0.06" stop-color="#00529c"/><stop offset="0.08" stop-color="#004b90"/><stop offset="0.18" stop-color="#01315f"/><stop offset="0.27" stop-color="#011d38"/><stop offset="0.36" stop-color="#020e1c"/><stop offset="0.43" stop-color="#02050b"/><stop offset="0.49" stop-color="#020205"/><stop offset="0.63" stop-color="#040306"/><stop offset="0.71" stop-color="#0c0808"/><stop offset="0.77" stop-color="#190f0b"/><stop offset="0.82" stop-color="#2c1a10"/><stop offset="0.86" stop-color="#452816"/><stop offset="0.9" stop-color="#63391e"/><stop offset="0.94" stop-color="#874e28"/><stop offset="0.98" stop-color="#b06532"/><stop offset="1" stop-color="#ce763a"/></linearGradient><radialGradient id="radial-gradient" cx="1294.66" cy="8689.21" r="273.46" gradientTransform="matrix(3.03, 0, 0, -1.9, -2629, 16896.49)" gradientUnits="userSpaceOnUse"><stop offset="0" stop-color="#75a2ca"/><stop offset="0.44" stop-color="#adc4d8"/><stop offset="0.81" stop-color="#d6dce2"/><stop offset="1" stop-color="#e6e6e6"/></radialGradient></defs><rect class="cls-1" x="-18.38" y="-18.74" width="2626.09" height="805.49"/><rect class="cls-2" x="211.4" y="106.65" width="2166.51" height="554.71" rx="37.26"/><rect class="cls-3" x="211.4" y="106.65" width="2166.51" height="554.71" rx="38.79"/><g id="Group_87" data-name="Group 87"><path id="Path_39" data-name="Path 39" class="cls-4" d="M1429.83,259.16H1375.4a51.92,51.92,0,0,0-34.35,13.23l-50.38,50.33-46.24,45.4-43.78,43.78c-4.12,4.13-4.63,4.31-12.74,4.31h-26.77a44.47,44.47,0,0,0-43.09,44.72,46.39,46.39,0,0,0,45.48,46.46h47.67a53.55,53.55,0,0,0,36.15-14.89L1387,353.33a11.66,11.66,0,0,1,9.76-3.48h34.47c16.6,0,40.08-18.79,40.08-45.91A45.34,45.34,0,0,0,1429.83,259.16Zm-2.47,67.2h-29.43a29.29,29.29,0,0,0-25.17,8.92L1232.09,476a29.34,29.34,0,0,1-22.19,8h-46.39a23,23,0,0,1-22.42-23.33A19.92,19.92,0,0,1,1160.26,440c.41,0,.83,0,1.24,0h31.83A26.74,26.74,0,0,0,1214,432l143-143a26.3,26.3,0,0,1,21.7-6.61h49a22.63,22.63,0,0,1,19.93,21.3,22.06,22.06,0,0,1-20.27,22.7Z"/><path id="path4011" class="cls-4" d="M1392.73,421.88h-48.89a10.36,10.36,0,0,0,0,20.71h25.06l-47.65,47.66a10.73,10.73,0,1,0,15.6,14.62l47-47v24.8a10.43,10.43,0,0,0,20.85,0V434.06A11.44,11.44,0,0,0,1394,421.89,10.59,10.59,0,0,0,1392.73,421.88Z"/><path id="path4011-2" class="cls-4" d="M1196.6,346.1h48.89a10.36,10.36,0,0,0,0-20.71h-25.06l47.65-47.66a10.73,10.73,0,1,0-14.44-15.88,11.35,11.35,0,0,0-1.16,1.24l-47,47.08V285.32a10.42,10.42,0,0,0-20.84,0v48.59a11.44,11.44,0,0,0,10.65,12.18C1195.76,346.11,1196.18,346.12,1196.6,346.1Z"/></g></svg>