<svg id="Layer_1" data-name="Layer 1" xmlns="http://www.w3.org/2000/svg" xmlns:xlink="http://www.w3.org/1999/xlink" viewBox="0 0 1467.96 768"><defs><style>.cls-1{fill:url(#linear-gradient);}.cls-2{fill:#fff;opacity:0.05;}.cls-3{fill:none;stroke-miterlimit:10;opacity:0.2;stroke:url(#radial-gradient);}.cls-4{fill:#e5e5e5;}</style><linearGradient id="linear-gradient" x1="-411.99" y1="-152.24" x2="1680.75" y2="827.03" gradientUnits="userSpaceOnUse"><stop offset="0.06" stop-color="#00529c"/><stop offset="0.08" stop-color="#004b90"/><stop offset="0.18" stop-color="#01315f"/><stop offset="0.27" stop-color="#011d38"/><stop offset="0.36" stop-color="#020e1c"/><stop offset="0.43" stop-color="#02050b"/><stop offset="0.49" stop-color="#020205"/><stop offset="0.63" stop-color="#040306"/><stop offset="0.71" stop-color="#0c0808"/><stop offset="0.77" stop-color="#190f0b"/><stop offset="0.82" stop-color="#2c1a10"/><stop offset="0.86" stop-color="#452816"/><stop offset="0.9" stop-color="#63391e"/><stop offset="0.94" stop-color="#874e28"/><stop offset="0.98" stop-color="#b06532"/><stop offset="1" stop-color="#ce763a"/></linearGradient><radialGradient id="radial-gradient" cx="733.98" cy="6332.47" r="155.93" gradientTransform="matrix(3.03, 0, 0, -3.41, -1490.46, 21987.2)" gradientUnits="userSpaceOnUse"><stop offset="0" stop-color="#75a2ca"/><stop offset="0.44" stop-color="#adc4d8"/><stop offset="0.81" stop-color="#d6dce2"/><stop offset="1" stop-color="#e6e6e6"/></radialGradient></defs><rect class="cls-1" x="-13.79" y="-12.15" width="1495.53" height="792.3"/><rect class="cls-2" x="117.07" y="100.45" width="1233.81" height="567.11" rx="37.26"/><rect class="cls-3" x="117.07" y="100.45" width="1233.81" height="567.11" rx="38.79"/><g id="Group_87" data-name="Group 87"><path id="Path_39" data-name="Path 39" class="cls-4" d="M884,245.43H823.6a57.6,57.6,0,0,0-38.13,14.69L729.55,316l-51.32,50.39L629.63,415c-4.58,4.59-5.14,4.79-14.14,4.79H585.78A49.34,49.34,0,0,0,538,469.39,51.48,51.48,0,0,0,588.43,521h52.91a59.42,59.42,0,0,0,40.13-16.53L836.42,350a12.94,12.94,0,0,1,10.84-3.86h38.26c18.42,0,44.49-20.87,44.49-51A50.32,50.32,0,0,0,884,245.43ZM881.28,320H848.6a32.53,32.53,0,0,0-27.94,9.9L664.52,486.06a32.53,32.53,0,0,1-24.62,8.87H588.41A25.49,25.49,0,0,1,563.52,469a22.11,22.11,0,0,1,21.28-22.92c.46,0,.92,0,1.38,0h35.33a29.7,29.7,0,0,0,22.93-8.82L803.21,278.52a29.18,29.18,0,0,1,24.08-7.34h54.36a25.13,25.13,0,0,1,22.13,23.65A24.5,24.5,0,0,1,881.28,320Z"/><path id="path4011" class="cls-4" d="M842.84,426H788.57a11.5,11.5,0,0,0,0,23h27.82l-52.9,52.9a11.91,11.91,0,1,0,16,17.68,13.14,13.14,0,0,0,1.35-1.44L832.92,466v27.53a11.58,11.58,0,0,0,23.15,0V439.57a12.7,12.7,0,0,0-11.83-13.51A10.9,10.9,0,0,0,842.84,426Z"/><path id="path4011-2" class="cls-4" d="M625.13,341.93H679.4a11.5,11.5,0,0,0,0-23H651.58l52.9-52.9a11.91,11.91,0,1,0-16-17.62,12.89,12.89,0,0,0-1.29,1.37l-52.11,52.26V274.47a11.57,11.57,0,0,0-23.14,0v53.94a12.71,12.71,0,0,0,11.83,13.51A12.89,12.89,0,0,0,625.13,341.93Z"/></g></svg>